<?xml version="1.0" encoding="UTF-8" standalone="no"?>
<svg id="svg2" xmlns:rdf="http://www.w3.org/1999/02/22-rdf-syntax-ns#" xmlns="http://www.w3.org/2000/svg" height="100%" width="100%" version="1.1" xmlns:cc="http://creativecommons.org/ns#" xmlns:xlink="http://www.w3.org/1999/xlink" viewBox="0 0 448.51843 469.5989" xmlns:dc="http://purl.org/dc/elements/1.1/">
 <defs id="defs4">
  <filter id="filter3834" width="1.136" y="-.16305" x="-.06803" height="1.3261" color-interpolation-filters="sRGB">
   <feGaussianBlur id="feGaussianBlur7" stdDeviation="12.7548"/>
  </filter>
  <linearGradient id="linearGradient3840">
   <stop id="stop10" stop-color="#ffffff" offset="0"/>
   <stop id="stop12" stop-color="#ffffff" stop-opacity="0" offset="1"/>
  </linearGradient>
  <clipPath id="clipPath3017" clipPathUnits="userSpaceOnUse">
   <rect id="rect3019" height="469.64" width="448.52" y="-.34586" x=".70411" fill="#fff"/>
  </clipPath>
  <linearGradient id="linearGradient3021" y2="316.27" xlink:href="#linearGradient3840" gradientUnits="userSpaceOnUse" x2="308" y1="626.4" x1="391.1"/>
  <linearGradient id="linearGradient3023" y2="-153.73" xlink:href="#linearGradient3840" gradientUnits="userSpaceOnUse" x2="-142" y1="156.4" x1="-58.902"/>
 </defs>
 <g id="g3007" transform="translate(-.70411 .303)" clip-path="url(#clipPath3017)">
  <path id="path16" stroke-linejoin="round" d="m0 0h450v470h-450z" stroke="#00a571" stroke-linecap="round" stroke-width="0.606" fill="#ffffff"/>
  <path id="path18" stroke-linejoin="round" d="m0 0h450v470h-450z" stroke="#ffffff" stroke-linecap="round" stroke-width="0.606" fill="url(#linearGradient3021)"/>
  <path id="path20" filter="url(#filter3834)" fill="#0ff" d="m72.39 306.76c-2.4636-5.41-2.471-5.6396-2.7371-85.018-0.14678-43.788-0.73407-81.611-1.3055-84.078-0.9731-4.201-1.0527-4.2718-1.261-1.121-0.20409 3.0871-0.75393 28.27-1.6154 73.989-0.20705 10.988-0.94906 20.108-1.9153 23.542-1.3873 4.9301-1.9132 5.5756-4.366 5.3598-4.9215-0.43318-6.086-0.39562-9.5933 0.3094-2.952 0.59337-3.9088 0.1433-6.7262-3.1638-1.8066-2.1206-4.1635-5.4774-5.2376-7.4597-1.5813-2.9183-2.5412-3.5364-5.0447-3.2485-2.5561 0.29397-3.7716 1.6706-7.0154 7.9457-3.3527 6.4858-4.4945 7.741-7.8473 8.627-2.9252 0.773-13.498 0.92216-17.725 0.20893v-2.9087s5.8249-0.38439 9.8674-0.62538l8.3974-0.56052 3.934-7.2543c3.7634-6.9398 7.3058-10.069 11.438-10.105 2.6916-0.0235 7.3034 4.2607 10.24 9.5123 2.4653 4.4089 2.614 4.4841 8.8591 4.4841 5.3736 0 6.4584-0.34526 7.0441-2.2421 0.62743-2.0318 1.91-34.326 3.3171-83.517 0.29099-10.173 0.70556-19.688 0.92127-21.144 0.40592-2.7394 3.4467-5.2088 5.1317-4.1674 3.3534 2.0725 5.2414 48.282 4.4696 109.39-0.66169 52.383-0.11061 71.267 2.0177 69.138 0.80441-0.8044 2.2894-20.822 3.2161-43.354 0.83356-20.267 2.1753-25.782 8.1063-33.318 5.3278-6.7701 7.9755-12.983 9.2894-21.796 3.6511-24.493 3.3849-23.44 6.2585-24.749 4.5379-2.0676 4.1027-3.2064 13.929 36.445 2.0701 8.3538 4.8552 14.846 8.1657 19.036 2.183 2.7628 6.0192 2.4375 9.9152-0.84079 2.4702-2.0786 4.6308-2.8026 8.3631-2.8026 6.3472 0 8.8311-1.3279 10.285-5.4985 1.3071-3.7496 6.1106-7.3878 8.5288-6.4598 0.88809 0.3408 3.4194 3.4409 5.6252 6.889 4.4322 6.9287 6.7141 8.4286 9.1369 6.0058 1.6183-1.6183 3.5368-22.242 6.0314-64.836 2.0113-34.342 2.4965-36.642 7.526-35.673 2.9914 0.57611 3.7298 6.3209 4.462 34.719 0.43726 16.958 0.0528 36.876-1.1577 59.976-3.301 62.991-3.2482 60.69-1.4502 63.257 1.4985 2.1394 1.6992 1.4031 2.366-8.6828 0.40069-6.0613 1.2075-14.396 1.793-18.522 0.58542-4.1258 1.0644-9.8431 1.0644-12.705 0-3.1179 1.292-8.4302 3.2233-13.253 1.7728-4.4273 4.8412-13.844 6.8187-20.926 8.6341-30.921 11.351-38.1 14.418-38.1 2.6722 0 4.2858 5.7132 5.2242 18.497 0.79401 10.817 2.6752 22.001 3.9623 23.557 0.51687 0.62478 1.5509 3.5629 2.2978 6.5292 1.095 4.3487 2.1923 5.9198 5.6659 8.1126 2.3693 1.4957 4.6521 2.7194 5.0728 2.7194s3.1779-1.5484 6.1271-3.4409c4.5782-2.9379 6.0677-3.343 10.187-2.771 5.4243 0.7531 6.4753 0.23723 8.4704-4.1577 0.76973-1.6956 1.9821-4.3307 2.6941-5.8558 0.74191-1.5891 2.9388-3.3156 5.146-4.044 3.7786-1.247 3.9528-1.1614 9.2141 4.5318 5.1026 5.5213 5.5659 5.7647 9.5503 5.0172 2.8931-0.54276 4.4584-0.34725 5.0639 0.63251 1.2854 2.0797 1.8762-2.0821 3.8993-27.467 2.8944-36.318 6.3497-54.299 10.903-56.735 4.0196-2.1512 5.7234 1.4159 4.8776 10.212-2.3836 24.789-3.0242 118.95-0.85799 126.12 0.89444 2.9593 1.1176 2.3535 1.8586-5.0447 1.1269-11.252 4.6759-29.244 7.436-37.698 1.2598-3.8586 4.4337-9.6911 7.2416-13.307 2.7494-3.5406 4.9988-6.8499 4.9988-7.3538 0-0.50396 4.1139-5.8656 9.142-11.915 10.183-12.251 11.33-14.451 13.172-25.267 2.4064-14.13 7.1708-21.163 11.03-16.283 1.4859 1.8792 2.7982 16.105 3.1336 33.967 0.28847 15.362 1.9955 29.493 4.0194 33.275 1.028 1.9208 2.0555 2.1704 7.1851 1.745 4.9115-0.40728 7.5194-1.5326 14.533-6.2706 10.792-7.2907 15.582-8.6742 23.98-6.9256 3.4603 0.72052 9.7831 1.6415 14.051 2.0466 3.6105 0.34275 7.6586-0.22497 9.1711 0.38113-0.002 1.2889 0.0003 2.6185 0 3.4852-1.0047 0.37379-3.6877-0.0128-5.5686 0.26932-3.2582 0.4886-7.5484 0.12177-12.19-1.0423-13.856-3.475-17.302-2.5982-31.705 8.069-4.0551 3.0032-15.907 5.2025-19.885 3.6901-4.5859-1.7436-6.1848-10.532-7.5562-41.533-0.66708-15.08-1.4152-27.62-1.6624-27.867-0.99327-0.99325-4.0804 8.5449-5.1058 15.775-1.0656 7.5135-2.9437 12.543-5.8185 15.582-0.78508 0.82996-3.3427 3.892-5.6836 6.8046s-4.8873 5.9387-5.6587 6.7247c-0.77137 0.786-3.3659 4.4559-5.7655 8.1553-2.3997 3.6994-5.2319 7.5874-6.2939 8.6399-2.245 2.2249-6.3073 12.592-7.8034 19.914-3.1132 15.237-4.4146 23.121-4.4203 26.777-0.008 5.9298-1.9949 12.159-4.1383 12.982-4.0648 1.5598-5.2166-1.9919-6.2409-19.244-0.90824-15.298-0.35338-88.898 0.8263-109.6 0.49705-8.7248 0.46991-8.8446-0.99946-4.4112-2.3481 7.0845-4.9309 25.866-6.8817 50.04-1.9849 24.597-2.5453 27.656-5.384 29.395-1.5413 0.94429-2.3033 0.75794-3.5033-0.85669-1.0412-1.401-2.2785-1.8271-3.8536-1.3271-3.1321 0.9941-11.065-3.5581-13.117-7.5274-2.435-4.7088-5.115-3.901-8.1306 2.4507-1.4481 3.0501-3.4728 6.3058-4.4995 7.2348-1.9953 1.8058-8.5125 2.5698-11.408 1.3374-1.0981-0.46733-3.3611 0.52811-6.0396 2.6567-5.1136 4.0638-9.0119 4.3086-14.841 0.93183-5.3661-3.1084-5.2944-2.9942-8.6428-13.77-3.3132-10.663-5.1046-21.046-5.2244-30.281-0.048-3.6994-0.45535-7.6621-0.90525-8.8059-0.66666-1.695-1.0724-1.2802-2.1933 2.2421-1.2765 4.0113-10.346 35.146-11.709 40.195-0.33285 1.2331-1.8695 5.7733-3.4149 10.089-2.6308 7.3477-4.9592 23.68-6.8721 48.205-0.81058 10.392-1.5349 12.676-4.298 13.553-3.2357 1.027-4.8664-1.6567-5.6926-9.368-0.72947-6.809 0.90053-58.189 2.5321-79.815 1.0042-13.31 0.49895-63.488-0.68899-68.423-0.60271-2.5036-0.76905-2.3242-1.5591 1.6816-0.48642 2.4663-1.4329 13.817-2.1032 25.223-3.5072 59.677-3.9127 63.686-6.7477 66.704-1.447 1.5403-3.3175 2.8006-4.1566 2.8006-2.9034 0-7.01-3.6076-10.426-9.1592-1.8867-3.0663-4.0434-5.3762-4.7926-5.133-0.74922 0.24315-2.1676 2.1212-3.152 4.1736-2.5288 5.272-5.0909 6.7555-11.667 6.7555-4.9163 0-6.2049 0.48346-8.9638 3.3631-2.4518 2.5591-4.2211 3.3631-7.401 3.3631-3.6991 0-4.6353-0.62169-8.1532-5.414-3.9508-5.382-6.3823-12.897-13.12-40.549-1.277-5.2409-2.7886-10.008-3.3591-10.594-0.57049-0.58573-1.0644-0.83797-1.0977-0.56054-0.0332 0.27743-0.50065 4.288-1.0387 8.9123-2.3114 19.866-4.2496 25.655-11.982 35.787-5.6577 7.413-6.8192 13.456-7.5577 39.323-1.1249 39.4-4.1404 51.132-9.895 38.495z"/>
  <path id="path22" fill="#084079" d="m72.39 331.87c-2.4636-4.8117-2.471-5.0159-2.7371-75.615-0.14678-38.945-0.73407-72.585-1.3055-74.779-0.9731-3.7364-1.0527-3.7993-1.261-0.99705-0.20409 2.7457-0.75393 25.144-1.6154 65.805-0.20705 9.7725-0.94906 17.884-1.9153 20.938-1.3873 4.3848-1.9132 4.959-4.366 4.767-4.9215-0.38527-6.086-0.35186-9.5933 0.27518-2.952 0.52774-3.9088 0.12745-6.7262-2.8139-1.8066-1.886-4.1635-4.8716-5.2376-6.6346-1.5813-2.5956-2.5412-3.1453-5.0447-2.8892-2.5561 0.26146-3.7716 1.4858-7.0154 7.0669-3.3527 5.7684-4.4945 6.8848-7.8473 7.6728-2.9252 0.68751-13.498 0.82017-17.725 0.18582v-2.587s5.8249-0.34188 9.8674-0.55621l8.3974-0.49853 3.934-6.452c3.7634-6.1723 7.3058-8.9556 11.438-8.9876 2.6916-0.0209 7.3034 3.7894 10.24 8.4602 2.4653 3.9212 2.614 3.9882 8.8591 3.9882 5.3736 0 6.4584-0.30707 7.0441-1.9941 0.62743-1.8071 1.91-30.529 3.3171-74.28 0.29099-9.0482 0.70556-17.511 0.92127-18.805 0.40592-2.4364 3.4467-4.6327 5.1317-3.7065 3.3534 1.8433 5.2414 42.942 4.4696 97.291-0.66169 46.59-0.11061 63.385 2.0177 61.492 0.80441-0.71544 2.2894-18.519 3.2161-38.559 0.83355-18.025 2.1753-22.93 8.1063-29.633 5.3279-6.0214 7.9755-11.547 9.2894-19.386 3.6511-21.784 3.3849-20.847 6.2585-22.012 4.5379-1.8389 4.1027-2.8518 13.929 32.414 2.0701 7.4298 4.8552 13.204 8.1657 16.931 2.183 2.4572 6.0192 2.1679 9.9152-0.7478 2.4702-1.8487 4.6308-2.4926 8.3631-2.4926 6.3472 0 8.8311-1.181 10.285-4.8904 1.3071-3.3349 6.1106-6.5707 8.5288-5.7454 0.88809 0.30311 3.4194 3.0603 5.6252 6.1271 4.4322 6.1624 6.7141 7.4964 9.1369 5.3416 1.6183-1.4393 3.5368-19.782 6.0314-57.665 2.0113-30.544 2.4965-32.589 7.526-31.728 2.9914 0.5124 3.7298 5.6218 4.462 30.879 0.43727 15.082 0.0528 32.797-1.1577 53.342-3.301 56.024-3.2482 53.978-1.4502 56.261 1.4986 1.9028 1.6992 1.2479 2.366-7.7225 0.4007-5.3909 1.2075-12.804 1.793-16.473 0.58541-3.6695 1.0644-8.7545 1.0644-11.3 0-2.7731 1.292-7.4978 3.2233-11.788 1.7728-3.9377 4.8412-12.313 6.8187-18.612 8.6342-27.501 11.351-33.886 14.418-33.886 2.6722 0 4.2858 5.0813 5.2242 16.451 0.79402 9.6204 2.6752 19.568 3.9623 20.951 0.51687 0.55568 1.5509 3.1688 2.2978 5.807 1.095 3.8678 2.1923 5.2651 5.6659 7.2154 2.3693 1.3303 4.6521 2.4187 5.0728 2.4187 0.42069 0 3.1779-1.3772 6.1271-3.0604 4.5782-2.6129 6.0677-2.9732 10.187-2.4645 5.4243 0.66981 6.4753 0.21099 8.4704-3.6978 0.76973-1.508 1.9821-3.8517 2.6941-5.2081 0.74191-1.4134 2.9388-2.9489 5.146-3.5968 3.7786-1.1091 3.9527-1.0329 9.2141 4.0306 5.1026 4.9107 5.5659 5.1271 9.5503 4.4623 2.8931-0.48273 4.4584-0.30884 5.0639 0.56256 1.2854 1.8497 1.8762-1.8519 3.8993-24.429 2.8944-32.301 6.3497-48.293 10.902-50.46 4.0196-1.9133 5.7234 1.2593 4.8776 9.0826-2.3836 22.048-3.0242 105.79-0.85799 112.17 0.89444 2.632 1.1176 2.0932 1.8586-4.4867 1.1269-10.007 4.6759-26.009 7.436-33.529 1.2597-3.4318 4.4337-8.6193 7.2416-11.835 2.7494-3.149 4.9988-6.0923 4.9988-6.5405 0-0.44823 4.1139-5.2169 9.142-10.597 10.183-10.896 11.33-12.852 13.172-22.472 2.4064-12.567 7.1708-18.822 11.03-14.482 1.4859 1.6713 2.7982 14.323 3.1337 30.211 0.28846 13.663 1.9955 26.231 4.0194 29.595 1.028 1.7084 2.0555 1.9303 7.1851 1.552 4.9115-0.36223 7.5194-1.3631 14.533-5.5771 10.792-6.4844 15.582-7.7148 23.98-6.1596 3.4603 0.64083 9.7831 1.46 14.051 1.8203 3.6105 0.30485 7.6586-0.20008 9.1711 0.33898-0.002 1.1463 0.0003 2.3289 0 3.0997-1.0047 0.33245-3.6877-0.0114-5.5686 0.23954-3.2582 0.43456-7.5484 0.1083-12.19-0.927-13.856-3.0907-17.302-2.3108-31.705 7.1766-4.0551 2.671-15.907 4.6271-19.885 3.282-4.5859-1.5507-6.1848-9.3673-7.5562-36.94-0.66708-13.412-1.4152-24.565-1.6624-24.785-0.99327-0.8834-4.0804 7.5998-5.1058 14.03-1.0656 6.6825-2.9437 11.156-5.8185 13.859-0.78508 0.73816-3.3427 3.4616-5.6836 6.052s-4.8873 5.2819-5.6586 5.981c-0.77137 0.69907-3.3659 3.9631-5.7655 7.2534s-5.2319 6.7482-6.2939 7.6843c-2.245 1.9789-6.3073 11.199-7.8034 17.711-3.1132 13.551-4.4147 20.564-4.4203 23.816-0.008 5.274-1.9949 10.815-4.1383 11.546-4.0648 1.3873-5.2166-1.7716-6.2409-17.116-0.90825-13.606-0.35338-79.066 0.8263-97.482 0.49705-7.7598 0.4699-7.8664-0.99946-3.9233-2.3481 6.3009-4.931 23.005-6.8817 44.505-1.9849 21.876-2.5453 24.597-5.384 26.144-1.5413 0.83986-2.3034 0.67412-3.5033-0.76193-1.0412-1.246-2.2785-1.625-3.8536-1.1804-3.1321 0.88415-11.065-3.1646-13.117-6.6949-2.435-4.188-5.115-3.4695-8.1306 2.1797-1.4481 2.7127-3.4728 5.6083-4.4994 6.4346-1.9954 1.606-8.5125 2.2856-11.408 1.1895-1.0981-0.41564-3.3611 0.4697-6.0396 2.3629-5.1136 3.6144-9.0118 3.832-14.841 0.82877-5.3661-2.7646-5.2944-2.663-8.6428-12.247-3.3132-9.4836-5.1046-18.718-5.2244-26.932-0.048-3.2903-0.45535-6.8146-0.90525-7.8319-0.66665-1.5075-1.0724-1.1386-2.1933 1.9941-1.2765 3.5676-10.346 31.259-11.709 35.749-0.33286 1.0968-1.8695 5.1348-3.4149 8.9734-2.6308 6.535-4.9592 21.061-6.8721 42.873-0.81058 9.2424-1.5349 11.274-4.298 12.054-3.2357 0.91338-4.8664-1.4734-5.6926-8.3319-0.72947-6.056 0.90053-51.754 2.5321-70.988 1.0042-11.838 0.49895-56.467-0.68899-60.855-0.60271-2.2267-0.76904-2.0671-1.5591 1.4956-0.48642 2.1935-1.4329 12.289-2.1032 22.434-3.5072 53.077-3.9127 56.642-6.7477 59.326-1.447 1.37-3.3175 2.4908-4.1566 2.4908-2.9034 0-7.01-3.2086-10.426-8.1462-1.8867-2.7272-4.0434-4.7816-4.7926-4.5653-0.74921 0.21626-2.1676 1.8866-3.152 3.712-2.5288 4.6889-5.0909 6.0083-11.667 6.0083-4.9163 0-6.2049 0.42999-8.9638 2.9912-2.4518 2.2761-4.2211 2.9912-7.401 2.9912-3.6991 0-4.6353-0.55293-8.1532-4.8152-3.9508-4.7868-6.3823-11.471-13.12-36.064-1.277-4.6612-2.7886-8.9012-3.3591-9.4221-0.57049-0.52095-1.0644-0.74529-1.0977-0.49854-0.0332 0.24675-0.50065 3.8137-1.0387 7.9266-2.3114 17.669-4.2496 22.818-11.982 31.829-5.6577 6.5931-6.8192 11.968-7.5577 34.973-1.1249 35.043-4.1404 45.477-9.895 34.238z"/>
  <path id="path24" opacity=".82460" fill="#fff" d="m72.39 306.76c-2.4636-5.41-2.471-5.6396-2.7371-85.018-0.14678-43.788-0.73407-81.611-1.3055-84.078-0.9731-4.201-1.0527-4.2718-1.261-1.121-0.20409 3.0871-0.75393 28.27-1.6154 73.989-0.20705 10.988-0.94906 20.108-1.9153 23.542-1.3873 4.9301-1.9132 5.5756-4.366 5.3598-4.9215-0.43318-6.086-0.39562-9.5933 0.3094-2.952 0.59337-3.9088 0.1433-6.7262-3.1638-1.8066-2.1206-4.1635-5.4774-5.2376-7.4597-1.5813-2.9183-2.5412-3.5364-5.0447-3.2485-2.5561 0.29397-3.7716 1.6706-7.0154 7.9457-3.3527 6.4858-4.4945 7.741-7.8473 8.627-2.9252 0.773-13.498 0.92216-17.725 0.20893v-2.9087s5.8249-0.38439 9.8674-0.62538l8.3974-0.56052 3.934-7.2543c3.7634-6.9398 7.3058-10.069 11.438-10.105 2.6916-0.0235 7.3034 4.2607 10.24 9.5123 2.4653 4.4089 2.614 4.4841 8.8591 4.4841 5.3736 0 6.4584-0.34526 7.0441-2.2421 0.62743-2.0318 1.91-34.326 3.3171-83.517 0.29099-10.173 0.70556-19.688 0.92127-21.144 0.40592-2.7394 3.4467-5.2088 5.1317-4.1674 3.3534 2.0725 5.2414 48.282 4.4696 109.39-0.66169 52.383-0.11061 71.267 2.0177 69.138 0.80441-0.8044 2.2894-20.822 3.2161-43.354 0.83356-20.267 2.1753-25.782 8.1063-33.318 5.3278-6.7701 7.9755-12.983 9.2894-21.796 3.6511-24.493 3.3849-23.44 6.2585-24.749 4.5379-2.0676 4.1027-3.2064 13.929 36.445 2.0701 8.3538 4.8552 14.846 8.1657 19.036 2.183 2.7628 6.0192 2.4375 9.9152-0.84079 2.4702-2.0786 4.6308-2.8026 8.3631-2.8026 6.3472 0 8.8311-1.3279 10.285-5.4985 1.3071-3.7496 6.1106-7.3878 8.5288-6.4598 0.88809 0.3408 3.4194 3.4409 5.6252 6.889 4.4322 6.9287 6.7141 8.4286 9.1369 6.0058 1.6183-1.6183 3.5368-22.242 6.0314-64.836 2.0113-34.342 2.4965-36.642 7.526-35.673 2.9914 0.57611 3.7298 6.3209 4.462 34.719 0.43726 16.958 0.0528 36.876-1.1577 59.976-3.301 62.991-3.2482 60.69-1.4502 63.257 1.4985 2.1394 1.6992 1.4031 2.366-8.6828 0.40069-6.0613 1.2075-14.396 1.793-18.522 0.58542-4.1258 1.0644-9.8431 1.0644-12.705 0-3.1179 1.292-8.4302 3.2233-13.253 1.7728-4.4273 4.8412-13.844 6.8187-20.926 8.6341-30.921 11.351-38.1 14.418-38.1 2.6722 0 4.2858 5.7132 5.2242 18.497 0.79401 10.817 2.6752 22.001 3.9623 23.557 0.51687 0.62478 1.5509 3.5629 2.2978 6.5292 1.095 4.3487 2.1923 5.9198 5.6659 8.1126 2.3693 1.4957 4.6521 2.7194 5.0728 2.7194s3.1779-1.5484 6.1271-3.4409c4.5782-2.9379 6.0677-3.343 10.187-2.771 5.4243 0.7531 6.4753 0.23723 8.4704-4.1577 0.76973-1.6956 1.9821-4.3307 2.6941-5.8558 0.74191-1.5891 2.9388-3.3156 5.146-4.044 3.7786-1.247 3.9528-1.1614 9.2141 4.5318 5.1026 5.5213 5.5659 5.7647 9.5503 5.0172 2.8931-0.54276 4.4584-0.34725 5.0639 0.63251 1.2854 2.0797 1.8762-2.0821 3.8993-27.467 2.8944-36.318 6.3497-54.299 10.903-56.735 4.0196-2.1512 5.7234 1.4159 4.8776 10.212-2.3836 24.789-3.0242 118.95-0.85799 126.12 0.89444 2.9593 1.1176 2.3535 1.8586-5.0447 1.1269-11.252 4.6759-29.244 7.436-37.698 1.2598-3.8586 4.4337-9.6911 7.2416-13.307 2.7494-3.5406 4.9988-6.8499 4.9988-7.3538 0-0.50396 4.1139-5.8656 9.142-11.915 10.183-12.251 11.33-14.451 13.172-25.267 2.4064-14.13 7.1708-21.163 11.03-16.283 1.4859 1.8792 2.7982 16.105 3.1336 33.967 0.28847 15.362 1.9955 29.493 4.0194 33.275 1.028 1.9208 2.0555 2.1704 7.1851 1.745 4.9115-0.40728 7.5194-1.5326 14.533-6.2706 10.792-7.2907 15.582-8.6742 23.98-6.9256 3.4603 0.72052 9.7831 1.6415 14.051 2.0466 3.6105 0.34275 7.6586-0.22497 9.1711 0.38113-0.002 1.2889 0.0003 2.6185 0 3.4852-1.0047 0.37379-3.6877-0.0128-5.5686 0.26932-3.2582 0.4886-7.5484 0.12177-12.19-1.0423-13.856-3.475-17.302-2.5982-31.705 8.069-4.0551 3.0032-15.907 5.2025-19.885 3.6901-4.5859-1.7436-6.1848-10.532-7.5562-41.533-0.66708-15.08-1.4152-27.62-1.6624-27.867-0.99327-0.99325-4.0804 8.5449-5.1058 15.775-1.0656 7.5135-2.9437 12.543-5.8185 15.582-0.78508 0.82996-3.3427 3.892-5.6836 6.8046s-4.8873 5.9387-5.6587 6.7247c-0.77137 0.786-3.3659 4.4559-5.7655 8.1553-2.3997 3.6994-5.2319 7.5874-6.2939 8.6399-2.245 2.2249-6.3073 12.592-7.8034 19.914-3.1132 15.237-4.4146 23.121-4.4203 26.777-0.008 5.9298-1.9949 12.159-4.1383 12.982-4.0648 1.5598-5.2166-1.9919-6.2409-19.244-0.90824-15.298-0.35338-88.898 0.8263-109.6 0.49705-8.7248 0.46991-8.8446-0.99946-4.4112-2.3481 7.0845-4.9309 25.866-6.8817 50.04-1.9849 24.597-2.5453 27.656-5.384 29.395-1.5413 0.94429-2.3033 0.75794-3.5033-0.85669-1.0412-1.401-2.2785-1.8271-3.8536-1.3271-3.1321 0.9941-11.065-3.5581-13.117-7.5274-2.435-4.7088-5.115-3.901-8.1306 2.4507-1.4481 3.0501-3.4728 6.3058-4.4995 7.2348-1.9953 1.8058-8.5125 2.5698-11.408 1.3374-1.0981-0.46733-3.3611 0.52811-6.0396 2.6567-5.1136 4.0638-9.0119 4.3086-14.841 0.93183-5.3661-3.1084-5.2944-2.9942-8.6428-13.77-3.3132-10.663-5.1046-21.046-5.2244-30.281-0.048-3.6994-0.45535-7.6621-0.90525-8.8059-0.66666-1.695-1.0724-1.2802-2.1933 2.2421-1.2765 4.0113-10.346 35.146-11.709 40.195-0.33285 1.2331-1.8695 5.7733-3.4149 10.089-2.6308 7.3477-4.9592 23.68-6.8721 48.205-0.81058 10.392-1.5349 12.676-4.298 13.553-3.2357 1.027-4.8664-1.6567-5.6926-9.368-0.72947-6.809 0.90053-58.189 2.5321-79.815 1.0042-13.31 0.49895-63.488-0.68899-68.423-0.60271-2.5036-0.76905-2.3242-1.5591 1.6816-0.48642 2.4663-1.4329 13.817-2.1032 25.223-3.5072 59.677-3.9127 63.686-6.7477 66.704-1.447 1.5403-3.3175 2.8006-4.1566 2.8006-2.9034 0-7.01-3.6076-10.426-9.1592-1.8867-3.0663-4.0434-5.3762-4.7926-5.133-0.74922 0.24315-2.1676 2.1212-3.152 4.1736-2.5288 5.272-5.0909 6.7555-11.667 6.7555-4.9163 0-6.2049 0.48346-8.9638 3.3631-2.4518 2.5591-4.2211 3.3631-7.401 3.3631-3.6991 0-4.6353-0.62169-8.1532-5.414-3.9508-5.382-6.3823-12.897-13.12-40.549-1.277-5.2409-2.7886-10.008-3.3591-10.594-0.57049-0.58573-1.0644-0.83797-1.0977-0.56054-0.0332 0.27743-0.50065 4.288-1.0387 8.9123-2.3114 19.866-4.2496 25.655-11.982 35.787-5.6577 7.413-6.8192 13.456-7.5577 39.323-1.1249 39.4-4.1404 51.132-9.895 38.495z"/>
  <path id="path26" opacity="0.455" stroke-linejoin="round" d="m-450-470h450v470h-450z" transform="scale(-1)" stroke="#00a571" stroke-linecap="round" stroke-width="0.606" fill="url(#linearGradient3023)"/>
 </g>
</svg>
